<svg xmlns="http://www.w3.org/2000/svg" width="1.70667in" height="1.70667in" viewBox="0 0 512 512">
    <path id="Selection" fill="#ffffff" stroke="black" stroke-width="1"
          d="M 124.00,75.00            C 124.00,75.00 243.00,75.00 243.00,75.00              243.00,75.00 275.00,75.00 275.00,75.00              295.92,75.03 326.95,82.45 345.00,93.01              359.20,101.32 372.06,112.77 380.55,127.00              400.84,161.04 399.31,215.82 377.91,249.00              367.19,265.62 348.01,279.24 330.00,287.00              330.00,287.00 349.78,324.00 349.78,324.00              349.78,324.00 386.31,393.00 386.31,393.00              386.31,393.00 401.75,422.00 401.75,422.00              405.21,428.88 407.80,431.12 408.00,439.00              408.00,439.00 335.00,439.00 335.00,439.00              335.00,439.00 327.39,437.98 327.39,437.98              327.39,437.98 322.14,430.00 322.14,430.00              322.14,430.00 311.75,410.00 311.75,410.00              311.75,410.00 271.25,331.00 271.25,331.00              271.25,331.00 263.25,315.00 263.25,315.00              263.25,315.00 257.79,307.02 257.79,307.02              257.79,307.02 250.00,306.00 250.00,306.00              250.00,306.00 200.00,306.00 200.00,306.00              200.00,306.00 200.00,439.00 200.00,439.00              200.00,439.00 124.00,439.00 124.00,439.00              124.00,439.00 124.00,75.00 124.00,75.00 Z            M 200.00,245.00            C 200.00,245.00 255.00,245.00 255.00,245.00              255.00,245.00 265.00,244.09 265.00,244.09              276.25,243.32 284.94,242.51 295.00,236.55              301.50,232.69 306.32,228.38 310.45,222.00              326.10,197.83 320.51,157.43 294.00,143.32              284.04,138.02 270.20,136.02 259.00,136.00              259.00,136.00 200.00,136.00 200.00,136.00              200.00,136.00 200.00,245.00 200.00,245.00 Z"/>
    <deepl-alert xmlns=""/>
    <deepl-alert xmlns=""/>
    <deepl-alert xmlns=""/>
</svg>